<svg width="18" height="18" viewBox="0 0 18 18" fill="none" xmlns="http://www.w3.org/2000/svg">
<path d="M9 16.3125C10.4463 16.3125 11.8601 15.8836 13.0626 15.0801C14.2651 14.2766 15.2024 13.1346 15.7559 11.7984C16.3093 10.4622 16.4541 8.99189 16.172 7.5734C15.8898 6.15492 15.1934 4.85195 14.1707 3.82928C13.148 2.80661 11.8451 2.11016 10.4266 1.82801C9.00811 1.54585 7.53781 1.69067 6.20163 2.24413C4.86544 2.7976 3.72338 3.73486 2.91988 4.93739C2.11637 6.13993 1.6875 7.55372 1.6875 9C1.68954 10.9388 2.46062 12.7975 3.83154 14.1685C5.20245 15.5394 7.06123 16.3105 9 16.3125ZM9 2.8125C10.2238 2.8125 11.4201 3.17539 12.4376 3.85528C13.4551 4.53517 14.2482 5.50153 14.7165 6.63215C15.1848 7.76276 15.3074 9.00686 15.0686 10.2071C14.8299 11.4074 14.2406 12.5099 13.3752 13.3752C12.5099 14.2406 11.4074 14.8299 10.2071 15.0686C9.00686 15.3074 7.76276 15.1848 6.63214 14.7165C5.50152 14.2482 4.53517 13.4551 3.85528 12.4376C3.17539 11.4201 2.8125 10.2238 2.8125 9C2.81436 7.35954 3.46685 5.78681 4.62683 4.62683C5.78681 3.46685 7.35954 2.81436 9 2.8125ZM5.78953 9.39797C5.73723 9.34573 5.69574 9.28369 5.66743 9.2154C5.63912 9.14712 5.62455 9.07392 5.62455 9C5.62455 8.92608 5.63912 8.85288 5.66743 8.7846C5.69574 8.71631 5.73723 8.65427 5.78953 8.60203L8.03953 6.35203C8.14508 6.24648 8.28823 6.18719 8.4375 6.18719C8.58676 6.18719 8.72992 6.24648 8.83547 6.35203C8.94101 6.45758 9.00031 6.60073 9.00031 6.75C9.00031 6.89927 8.94101 7.04242 8.83547 7.14797L7.54523 8.4375L11.8125 8.4375C11.9617 8.4375 12.1048 8.49676 12.2102 8.60225C12.3157 8.70774 12.375 8.85082 12.375 9C12.375 9.14918 12.3157 9.29226 12.2102 9.39775C12.1048 9.50324 11.9617 9.5625 11.8125 9.5625L7.54523 9.5625L8.83547 10.852C8.94101 10.9576 9.00031 11.1007 9.00031 11.25C9.00031 11.3993 8.94101 11.5424 8.83547 11.648C8.72992 11.7535 8.58676 11.8128 8.4375 11.8128C8.28823 11.8128 8.14508 11.7535 8.03953 11.648L5.78953 9.39797Z" fill="white"/>
</svg>
