<svg width="18" height="18" viewBox="0 0 18 18" fill="none" xmlns="http://www.w3.org/2000/svg">
<path d="M9 1.6875C7.55373 1.6875 6.13993 2.11637 4.9374 2.91988C3.73486 3.72339 2.7976 4.86544 2.24413 6.20163C1.69067 7.53781 1.54586 9.00811 1.82801 10.4266C2.11017 11.8451 2.80661 13.148 3.82928 14.1707C4.85196 15.1934 6.15492 15.8898 7.57341 16.172C8.99189 16.4541 10.4622 16.3093 11.7984 15.7559C13.1346 15.2024 14.2766 14.2651 15.0801 13.0626C15.8836 11.8601 16.3125 10.4463 16.3125 9C16.3105 7.06123 15.5394 5.20246 14.1685 3.83154C12.7975 2.46063 10.9388 1.68955 9 1.6875ZM9 15.1875C7.77623 15.1875 6.57994 14.8246 5.56241 14.1447C4.54488 13.4648 3.75182 12.4985 3.2835 11.3679C2.81518 10.2372 2.69265 8.99314 2.93139 7.79288C3.17014 6.59262 3.75944 5.49011 4.62478 4.62478C5.49012 3.75944 6.59262 3.17014 7.79288 2.93139C8.99314 2.69264 10.2372 2.81518 11.3679 3.2835C12.4985 3.75181 13.4648 4.54488 14.1447 5.56241C14.8246 6.57994 15.1875 7.77623 15.1875 9C15.1856 10.6405 14.5331 12.2132 13.3732 13.3732C12.2132 14.5331 10.6405 15.1856 9 15.1875ZM12.2105 8.60203C12.2628 8.65427 12.3043 8.71631 12.3326 8.7846C12.3609 8.85288 12.3754 8.92608 12.3754 9C12.3754 9.07392 12.3609 9.14712 12.3326 9.2154C12.3043 9.28369 12.2628 9.34573 12.2105 9.39797L9.96047 11.648C9.85492 11.7535 9.71177 11.8128 9.5625 11.8128C9.41324 11.8128 9.27008 11.7535 9.16453 11.648C9.05899 11.5424 8.99969 11.3993 8.99969 11.25C8.99969 11.1007 9.05899 10.9576 9.16453 10.852L10.4548 9.5625H6.1875C6.03832 9.5625 5.89525 9.50324 5.78976 9.39775C5.68427 9.29226 5.625 9.14918 5.625 9C5.625 8.85082 5.68427 8.70774 5.78976 8.60225C5.89525 8.49676 6.03832 8.4375 6.1875 8.4375H10.4548L9.16453 7.14797C9.05899 7.04242 8.99969 6.89927 8.99969 6.75C8.99969 6.60073 9.05899 6.45758 9.16453 6.35203C9.27008 6.24648 9.41324 6.18719 9.5625 6.18719C9.71177 6.18719 9.85492 6.24648 9.96047 6.35203L12.2105 8.60203Z" fill="white"/>
</svg>
