<svg width="16" height="16" viewBox="0 0 16 16" fill="none" xmlns="http://www.w3.org/2000/svg">
<path d="M8 15.3125C9.44627 15.3125 10.8601 14.8836 12.0626 14.0801C13.2651 13.2766 14.2024 12.1346 14.7559 10.7984C15.3093 9.46219 15.4541 7.99189 15.172 6.5734C14.8898 5.15492 14.1934 3.85195 13.1707 2.82928C12.148 1.80661 10.8451 1.11016 9.4266 0.828009C8.00811 0.545855 6.53781 0.690666 5.20163 1.24413C3.86544 1.7976 2.72338 2.73486 1.91988 3.93739C1.11637 5.13993 0.687496 6.55372 0.687496 8C0.689543 9.93877 1.46062 11.7975 2.83154 13.1685C4.20245 14.5394 6.06123 15.3105 8 15.3125ZM8 1.8125C9.22377 1.8125 10.4201 2.17539 11.4376 2.85528C12.4551 3.53517 13.2482 4.50153 13.7165 5.63215C14.1848 6.76276 14.3074 8.00686 14.0686 9.20712C13.8299 10.4074 13.2406 11.5099 12.3752 12.3752C11.5099 13.2406 10.4074 13.8299 9.20712 14.0686C8.00686 14.3074 6.76276 14.1848 5.63214 13.7165C4.50152 13.2482 3.53517 12.4551 2.85528 11.4376C2.17539 10.4201 1.8125 9.22377 1.8125 8C1.81436 6.35954 2.46685 4.78681 3.62683 3.62683C4.78681 2.46685 6.35954 1.81436 8 1.8125ZM4.78953 8.39797C4.73723 8.34573 4.69574 8.28369 4.66743 8.2154C4.63912 8.14712 4.62455 8.07392 4.62455 8C4.62455 7.92608 4.63912 7.85288 4.66743 7.7846C4.69574 7.71631 4.73723 7.65427 4.78953 7.60203L7.03953 5.35203C7.14508 5.24648 7.28823 5.18719 7.4375 5.18719C7.58676 5.18719 7.72992 5.24648 7.83547 5.35203C7.94101 5.45758 8.00031 5.60073 8.00031 5.75C8.00031 5.89927 7.94101 6.04242 7.83547 6.14797L6.54523 7.4375L10.8125 7.4375C10.9617 7.4375 11.1048 7.49676 11.2102 7.60225C11.3157 7.70774 11.375 7.85082 11.375 8C11.375 8.14918 11.3157 8.29226 11.2102 8.39775C11.1048 8.50324 10.9617 8.5625 10.8125 8.5625L6.54523 8.5625L7.83547 9.85203C7.94101 9.95758 8.00031 10.1007 8.00031 10.25C8.00031 10.3993 7.94101 10.5424 7.83547 10.648C7.72992 10.7535 7.58676 10.8128 7.4375 10.8128C7.28823 10.8128 7.14508 10.7535 7.03953 10.648L4.78953 8.39797Z" fill="white"/>
</svg>
